<?xml version="1.0" encoding="UTF-8" standalone="no" ?>
<!DOCTYPE svg PUBLIC "-//W3C//DTD SVG 1.1//EN" "http://www.w3.org/Graphics/SVG/1.1/DTD/svg11.dtd">
<svg xmlns="http://www.w3.org/2000/svg" xmlns:xlink="http://www.w3.org/1999/xlink" version="1.1" width="332.04625" height="133.84008" xml:space="preserve">
<desc>Created with Fabric.js 1.6.0-rc.1</desc>
<defs></defs>
<g style="stroke: none; stroke-width: 1; stroke-dasharray: none; stroke-linecap: butt; stroke-linejoin: miter; stroke-miterlimit: 10; fill: none; fill-rule: nonzero; opacity: 1;" transform="translate(10 10) scale(0.23 0.23)" >
  <path d="M 8.084 110.484 v 312.589 h 215.579 l 1.138 2.275 c 5.909 11.817 17.987 19.282 31.199 19.282 l 0 0 c 13.212 0 25.291 -7.464 31.199 -19.282 l 1.138 -2.275 h 215.579 V 110.484 H 8.084 z" style="stroke: none; stroke-width: 1; stroke-dasharray: none; stroke-linecap: butt; stroke-linejoin: miter; stroke-miterlimit: 10; fill: #BCB0AE; fill-rule: nonzero; opacity: 1;" transform=" matrix(1 0 0 1 0 0) " stroke-linecap="round" />
  <path d="M 191.326 88.926 c 35.718 0 64.674 28.955 64.674 64.674 v 237.137 H 40.421 V 88.926 H 191.326 z" style="stroke: none; stroke-width: 1; stroke-dasharray: none; stroke-linecap: butt; stroke-linejoin: miter; stroke-miterlimit: 10; fill: #FFFFFF; fill-rule: nonzero; opacity: 1;" transform=" matrix(1 0 0 1 0 0) " stroke-linecap="round" />
  <path d="M 256 390.737 h 215.579 V 88.926 H 320.674 C 284.955 88.926 256 117.882 256 153.6 V 390.737 z" style="stroke: none; stroke-width: 1; stroke-dasharray: none; stroke-linecap: butt; stroke-linejoin: miter; stroke-miterlimit: 10; fill: #FFFFFF; fill-rule: nonzero; opacity: 1;" transform=" matrix(1 0 0 1 0 0) " stroke-linecap="round" />
  <polygon points="126.65,277.56 61.98,326.06 61.98,88.93 191.33,88.93 191.33,326.06 " style="stroke: none; stroke-width: 1; stroke-dasharray: none; stroke-linecap: butt; stroke-linejoin: miter; stroke-miterlimit: 10; fill: #DDDDDD; fill-rule: nonzero; opacity: 1;" transform="  matrix(1 0 0 1 0 0) "/>
  <polygon points="169.77,282.95 126.65,250.61 83.54,282.95 83.54,67.37 169.77,67.37 " style="stroke: none; stroke-width: 1; stroke-dasharray: none; stroke-linecap: butt; stroke-linejoin: miter; stroke-miterlimit: 10; fill: #61B59B; fill-rule: nonzero; opacity: 1;" transform="  matrix(1 0 0 1 0 0) "/>
  <path d="M 223.663 97.6 v 237.137 c -9.515 -5.506 -20.552 -8.674 -32.337 -8.674 H 40.421 v 64.674 H 256 l 0 0 V 153.6 C 256 129.665 242.989 108.784 223.663 97.6 z" style="stroke: none; stroke-width: 1; stroke-dasharray: none; stroke-linecap: butt; stroke-linejoin: miter; stroke-miterlimit: 10; fill: #DDDDDD; fill-rule: nonzero; opacity: 1;" transform=" matrix(1 0 0 1 0 0) " stroke-linecap="round" />
  <path d="M 320.674 326.063 c -11.784 0 -22.822 3.167 -32.337 8.674 V 97.6 C 269.011 108.784 256 129.665 256 153.6 v 237.137 l 0 0 h 215.579 v -64.674 H 320.674 z" style="stroke: none; stroke-width: 1; stroke-dasharray: none; stroke-linecap: butt; stroke-linejoin: miter; stroke-miterlimit: 10; fill: #DDDDDD; fill-rule: nonzero; opacity: 1;" transform=" matrix(1 0 0 1 0 0) " stroke-linecap="round" />
  <path d="M 113.718 132.042 H 96.472 v -15.091 h 17.246 V 132.042 z M 113.718 100.783 H 96.472 V 78.147 h 17.246 V 100.783 z" style="stroke: none; stroke-width: 1; stroke-dasharray: none; stroke-linecap: butt; stroke-linejoin: miter; stroke-miterlimit: 10; fill: #FFFFFF; fill-rule: nonzero; opacity: 1;" transform=" matrix(1 0 0 1 0 0) " stroke-linecap="round" />
  <path d="M 493.137 102.4 v 16.168 h 2.695 v 296.421 H 283.341 l -3.372 6.744 c -4.569 9.137 -13.754 14.814 -23.969 14.814 c -10.215 0 -19.4 -5.676 -23.968 -14.814 l -3.373 -6.744 H 16.168 V 118.568 h 2.695 V 102.4 H 0 v 328.758 h 218.746 c 7.654 13.359 21.71 21.558 37.255 21.558 s 29.601 -8.198 37.255 -21.558 H 512 V 102.4 H 493.137 z" style="stroke: none; stroke-width: 1; stroke-dasharray: none; stroke-linecap: butt; stroke-linejoin: miter; stroke-miterlimit: 10; fill: #1b0aa3; fill-rule: nonzero; opacity: 1;" transform=" matrix(1 0 0 1 0 0) " stroke-linecap="round" />
  <path d="M 264.084 398.821 h 215.579 v -80.842 V 80.842 H 320.674 c -28.135 0 -52.573 16.063 -64.674 39.491 c -12.1 -23.428 -36.538 -39.491 -64.674 -39.491 v 16.168 c 31.204 0 56.589 25.385 56.589 56.589 v 191.476 c -13.349 -16.512 -33.752 -27.097 -56.589 -27.097 H 48.505 V 97.011 h 13.474 V 80.842 H 32.337 v 237.137 v 80.842 h 215.579 H 264.084 z M 264.66 382.653 c 3.934 -27.388 27.554 -48.505 56.014 -48.505 h 142.821 v 16.168 H 320.674 v 16.168 h 142.821 v 16.168 H 264.66 z M 320.674 97.011 h 142.821 v 220.968 H 320.674 c -22.837 0 -43.241 10.585 -56.589 27.097 V 153.6 C 264.084 122.396 289.47 97.011 320.674 97.011 z M 48.505 382.653 v -16.168 h 142.821 v -16.168 H 48.505 v -16.168 h 142.821 c 28.459 0 52.078 21.117 56.014 48.505 H 48.505 z" style="stroke: none; stroke-width: 1; stroke-dasharray: none; stroke-linecap: butt; stroke-linejoin: miter; stroke-miterlimit: 10; fill: #1b0aa3; fill-rule: nonzero; opacity: 1;" transform=" matrix(1 0 0 1 0 0) " stroke-linecap="round" />
  <rect x="299.12" y="134.74" rx="0" ry="0" width="32.34" height="16.17" style="stroke: none; stroke-width: 1; stroke-dasharray: none; stroke-linecap: butt; stroke-linejoin: miter; stroke-miterlimit: 10; fill: #1b0aa3; fill-rule: nonzero; opacity: 1;" transform=" matrix(1 0 0 1 0 0) "/>
  <rect x="353.01" y="134.74" rx="0" ry="0" width="86.23" height="16.17" style="stroke: none; stroke-width: 1; stroke-dasharray: none; stroke-linecap: butt; stroke-linejoin: miter; stroke-miterlimit: 10; fill: #1b0aa3; fill-rule: nonzero; opacity: 1;" transform=" matrix(1 0 0 1 0 0) "/>
  <rect x="299.12" y="167.07" rx="0" ry="0" width="97.01" height="16.17" style="stroke: none; stroke-width: 1; stroke-dasharray: none; stroke-linecap: butt; stroke-linejoin: miter; stroke-miterlimit: 10; fill: #1b0aa3; fill-rule: nonzero; opacity: 1;" transform=" matrix(1 0 0 1 0 0) "/>
  <rect x="417.68" y="167.07" rx="0" ry="0" width="21.56" height="16.17" style="stroke: none; stroke-width: 1; stroke-dasharray: none; stroke-linecap: butt; stroke-linejoin: miter; stroke-miterlimit: 10; fill: #1b0aa3; fill-rule: nonzero; opacity: 1;" transform=" matrix(1 0 0 1 0 0) "/>
  <rect x="342.23" y="231.75" rx="0" ry="0" width="97.01" height="16.17" style="stroke: none; stroke-width: 1; stroke-dasharray: none; stroke-linecap: butt; stroke-linejoin: miter; stroke-miterlimit: 10; fill: #1b0aa3; fill-rule: nonzero; opacity: 1;" transform=" matrix(1 0 0 1 0 0) "/>
  <rect x="299.12" y="231.75" rx="0" ry="0" width="21.56" height="16.17" style="stroke: none; stroke-width: 1; stroke-dasharray: none; stroke-linecap: butt; stroke-linejoin: miter; stroke-miterlimit: 10; fill: #1b0aa3; fill-rule: nonzero; opacity: 1;" transform=" matrix(1 0 0 1 0 0) "/>
  <rect x="299.12" y="199.41" rx="0" ry="0" width="53.9" height="16.17" style="stroke: none; stroke-width: 1; stroke-dasharray: none; stroke-linecap: butt; stroke-linejoin: miter; stroke-miterlimit: 10; fill: #1b0aa3; fill-rule: nonzero; opacity: 1;" transform=" matrix(1 0 0 1 0 0) "/>
  <rect x="374.57" y="199.41" rx="0" ry="0" width="21.56" height="16.17" style="stroke: none; stroke-width: 1; stroke-dasharray: none; stroke-linecap: butt; stroke-linejoin: miter; stroke-miterlimit: 10; fill: #1b0aa3; fill-rule: nonzero; opacity: 1;" transform=" matrix(1 0 0 1 0 0) "/>
  <rect x="417.68" y="199.41" rx="0" ry="0" width="21.56" height="16.17" style="stroke: none; stroke-width: 1; stroke-dasharray: none; stroke-linecap: butt; stroke-linejoin: miter; stroke-miterlimit: 10; fill: #1b0aa3; fill-rule: nonzero; opacity: 1;" transform=" matrix(1 0 0 1 0 0) "/>
  <rect x="299.12" y="264.08" rx="0" ry="0" width="140.13" height="16.17" style="stroke: none; stroke-width: 1; stroke-dasharray: none; stroke-linecap: butt; stroke-linejoin: miter; stroke-miterlimit: 10; fill: #1b0aa3; fill-rule: nonzero; opacity: 1;" transform=" matrix(1 0 0 1 0 0) "/>
  <path d="M 177.853 299.116 V 59.284 h -102.4 v 239.832 l 51.2 -38.4 L 177.853 299.116 z M 91.621 75.453 h 70.063 v 191.326 l -35.032 -26.274 l -35.032 26.274 V 75.453 z" style="stroke: none; stroke-width: 1; stroke-dasharray: none; stroke-linecap: butt; stroke-linejoin: miter; stroke-miterlimit: 10; fill: #1b0aa3; fill-rule: nonzero; opacity: 1;" transform=" matrix(1 0 0 1 0 0) " stroke-linecap="round" />
  <rect x="118.57" y="137.43" rx="0" ry="0" width="16.17" height="16.17" style="stroke: none; stroke-width: 1; stroke-dasharray: none; stroke-linecap: butt; stroke-linejoin: miter; stroke-miterlimit: 10; fill: #1b0aa3; fill-rule: nonzero; opacity: 1;" transform=" matrix(1 0 0 1 0 0) "/>
  <rect x="118.57" y="105.09" rx="0" ry="0" width="16.17" height="16.17" style="stroke: none; stroke-width: 1; stroke-dasharray: none; stroke-linecap: butt; stroke-linejoin: miter; stroke-miterlimit: 10; fill: #1b0aa3; fill-rule: nonzero; opacity: 1;" transform=" matrix(1 0 0 1 0 0) "/>
  <rect x="118.57" y="202.1" rx="0" ry="0" width="16.17" height="16.17" style="stroke: none; stroke-width: 1; stroke-dasharray: none; stroke-linecap: butt; stroke-linejoin: miter; stroke-miterlimit: 10; fill: #1b0aa3; fill-rule: nonzero; opacity: 1;" transform=" matrix(1 0 0 1 0 0) "/>
  <rect x="118.57" y="169.77" rx="0" ry="0" width="16.17" height="16.17" style="stroke: none; stroke-width: 1; stroke-dasharray: none; stroke-linecap: butt; stroke-linejoin: miter; stroke-miterlimit: 10; fill: #1b0aa3; fill-rule: nonzero; opacity: 1;" transform=" matrix(1 0 0 1 0 0) "/>
</g>
  <g transform="translate(237.89 80.38) scale(1.6 1.69)">
   <text font-family="ADAMCG PRO" font-size="40" font-weight="normal" style="stroke: none; stroke-width: 1; stroke-dasharray: none; stroke-linecap: butt; stroke-linejoin: miter; stroke-miterlimit: 10; fill: #f7f7f7; fill-rule: nonzero; opacity: 1;" ><tspan x="-53.1" y="8.98" style="stroke: none; stroke-width: 0; stroke-dasharray: none; stroke-linecap: butt; stroke-linejoin: miter; stroke-miterlimit: 4; fill: #f7f7f7; fill-rule: ; opacity: 1;">p</tspan><tspan x="-30.67" y="8.98" style="stroke: none; stroke-width: 0; stroke-dasharray: none; stroke-linecap: butt; stroke-linejoin: miter; stroke-miterlimit: 4; fill: #f7f7f7; fill-rule: ; opacity: 1;">q</tspan><tspan x="3.15" y="8.98" style="stroke: none; stroke-width: 0; stroke-dasharray: none; stroke-linecap: butt; stroke-linejoin: miter; stroke-miterlimit: 4; fill: #f7f7f7; fill-rule: ; opacity: 1;">y</tspan><tspan x="30.67" y="8.98" style="stroke: none; stroke-width: 0; stroke-dasharray: none; stroke-linecap: butt; stroke-linejoin: miter; stroke-miterlimit: 4; fill: #f7f7f7; fill-rule: ; opacity: 1;">p</tspan></text>
 </g>
</svg>